<svg xmlns="http://www.w3.org/2000/svg" xmlns:xlink="http://www.w3.org/1999/xlink" width="100" zoomAndPan="magnify" viewBox="0 0 375 374.999991" height="100" preserveAspectRatio="xMidYMid meet" version="1.0"><defs><clipPath id="408cb51cf4"><path d="M 278 131 L 356.992188 131 L 356.992188 258 L 278 258 Z M 278 131 " clip-rule="nonzero"/></clipPath><clipPath id="4c2f94d8bb"><path d="M 73 183 L 302 183 L 302 350.53125 L 73 350.53125 Z M 73 183 " clip-rule="nonzero"/></clipPath><clipPath id="71fd092b63"><path d="M 73 265 L 302 265 L 302 350.53125 L 73 350.53125 Z M 73 265 " clip-rule="nonzero"/></clipPath><clipPath id="8536aed376"><path d="M 28 32.53125 L 349 32.53125 L 349 112 L 28 112 Z M 28 32.53125 " clip-rule="nonzero"/></clipPath></defs><path fill="#ff0992" d="M 63.746094 193.179688 C 59.03125 177.160156 57.027344 161.269531 58.257812 148.347656 C 58.902344 141.375 60.453125 135.558594 62.84375 131.101562 L 25.308594 142.859375 C 23.304688 143.503906 21.753906 145.121094 21.175781 147.1875 C 16.652344 163.335938 16.976562 184.199219 23.304688 205.453125 C 29.765625 227.15625 41.070312 245.113281 53.992188 256.15625 C 55.605469 257.578125 57.867188 258.03125 59.9375 257.386719 L 96.824219 245.824219 C 82.546875 237.878906 70.207031 214.882812 63.746094 193.179688 Z M 63.746094 193.179688 " fill-opacity="1" fill-rule="nonzero"/><path fill="#7c277c" d="M 114.652344 239.234375 C 114.007812 239.878906 113.296875 240.460938 112.585938 240.914062 C 111.8125 241.429688 110.972656 241.816406 110.066406 242.078125 C 109.292969 242.335938 108.453125 242.464844 107.613281 242.464844 C 95.015625 243.046875 78.542969 221.277344 69.691406 191.433594 C 60.324219 159.847656 63.035156 131.167969 75.699219 127.097656 C 75.761719 127.03125 75.890625 127.03125 75.957031 127.03125 C 76.023438 127.03125 76.085938 127.03125 76.085938 126.96875 C 77.570312 126.515625 79.1875 126.453125 80.800781 126.773438 C 87.328125 127.871094 94.625 134.332031 101.34375 144.410156 C 96.886719 138.273438 92.300781 134.398438 88.230469 133.6875 C 87.070312 133.492188 86.035156 133.492188 85 133.816406 C 75.632812 136.527344 74.277344 159.78125 81.964844 185.621094 C 89.652344 211.523438 103.414062 230.253906 112.78125 227.476562 C 114.910156 226.832031 116.65625 225.152344 117.949219 222.503906 C 121.761719 214.882812 121.761719 199.832031 117.753906 182.777344 C 124.277344 208.292969 122.921875 231.03125 114.652344 239.234375 Z M 114.652344 239.234375 " fill-opacity="1" fill-rule="nonzero"/><g clip-path="url(#408cb51cf4)"><path fill="#ff0992" d="M 353.808594 147.121094 C 353.230469 145.054688 351.679688 143.441406 349.675781 142.792969 L 312.078125 131.101562 C 314.46875 135.625 316.019531 141.4375 316.664062 148.347656 C 317.890625 161.269531 315.890625 177.160156 311.171875 193.179688 C 304.710938 214.882812 292.375 237.878906 278.097656 245.824219 L 314.984375 257.386719 C 317.050781 258.03125 319.25 257.515625 320.929688 256.15625 C 333.847656 245.113281 345.152344 227.21875 351.613281 205.453125 C 357.945312 184.136719 358.332031 163.335938 353.808594 147.121094 Z M 353.808594 147.121094 " fill-opacity="1" fill-rule="nonzero"/></g><path fill="#7c277c" d="M 260.265625 239.234375 C 260.914062 239.878906 261.625 240.460938 262.332031 240.914062 C 263.109375 241.429688 263.949219 241.816406 264.851562 242.078125 C 265.628906 242.335938 266.46875 242.464844 267.308594 242.464844 C 279.90625 243.046875 296.378906 221.277344 305.230469 191.433594 C 314.597656 159.847656 311.882812 131.167969 299.222656 127.097656 C 299.15625 127.03125 299.027344 127.03125 298.964844 127.03125 C 298.898438 127.03125 298.835938 127.03125 298.835938 126.96875 C 297.347656 126.515625 295.734375 126.453125 294.117188 126.773438 C 287.59375 127.871094 280.292969 134.332031 273.574219 144.410156 C 278.03125 138.273438 282.617188 134.398438 286.6875 133.6875 C 287.851562 133.492188 288.886719 133.492188 289.917969 133.816406 C 299.285156 136.59375 300.644531 159.78125 292.957031 185.683594 C 285.269531 211.585938 271.507812 230.320312 262.140625 227.542969 C 260.007812 226.898438 258.265625 225.21875 256.972656 222.570312 C 253.160156 214.945312 253.160156 199.894531 257.164062 182.84375 C 250.707031 208.292969 252.0625 231.03125 260.265625 239.234375 Z M 260.265625 239.234375 " fill-opacity="1" fill-rule="nonzero"/><path fill="#ff0992" d="M 98.890625 179.226562 C 98.890625 179.226562 99.472656 178.773438 100.570312 177.871094 C 101.667969 177.03125 103.285156 175.800781 105.351562 174.316406 C 106.382812 173.542969 107.546875 172.765625 108.839844 171.925781 C 110.132812 171.085938 111.617188 170.246094 113.167969 169.34375 C 114.71875 168.4375 116.398438 167.535156 118.207031 166.5 C 119.109375 165.984375 120.015625 165.597656 120.984375 165.144531 C 121.953125 164.691406 122.921875 164.238281 123.957031 163.789062 C 124.988281 163.335938 126.023438 162.882812 127.058594 162.367188 C 128.089844 161.914062 129.1875 161.398438 130.289062 160.945312 C 132.546875 160.105469 134.875 159.265625 137.265625 158.425781 C 138.492188 157.972656 139.71875 157.585938 140.945312 157.132812 C 142.175781 156.746094 143.464844 156.421875 144.757812 156.035156 C 146.050781 155.648438 147.34375 155.324219 148.699219 155.003906 C 150.054688 154.679688 151.347656 154.292969 152.703125 153.96875 C 158.195312 152.871094 163.816406 151.707031 169.695312 151.191406 C 175.507812 150.417969 181.515625 150.289062 187.460938 150.15625 C 193.402344 150.351562 199.410156 150.417969 205.226562 151.191406 C 211.105469 151.707031 216.726562 152.871094 222.214844 153.96875 C 223.574219 154.226562 224.929688 154.613281 226.222656 155.003906 C 227.578125 155.324219 228.871094 155.714844 230.160156 156.035156 C 231.453125 156.359375 232.746094 156.746094 233.972656 157.132812 C 235.199219 157.523438 236.429688 157.972656 237.65625 158.425781 C 240.046875 159.265625 242.371094 160.105469 244.632812 160.945312 C 245.730469 161.332031 246.828125 161.851562 247.863281 162.367188 C 248.898438 162.820312 249.929688 163.269531 250.964844 163.789062 C 251.996094 164.238281 252.964844 164.691406 253.9375 165.144531 C 254.90625 165.597656 255.808594 165.984375 256.714844 166.5 C 258.457031 167.46875 260.136719 168.4375 261.6875 169.34375 C 263.238281 170.246094 264.722656 171.085938 266.015625 171.925781 C 267.308594 172.765625 268.472656 173.605469 269.570312 174.382812 C 271.699219 175.867188 273.316406 177.09375 274.414062 178 C 275.511719 178.839844 276.09375 179.355469 276.09375 179.355469 C 276.09375 179.355469 275.320312 179.289062 273.960938 179.160156 C 272.605469 179.03125 270.539062 178.773438 268.082031 178.449219 C 266.792969 178.320312 265.433594 178.0625 263.949219 177.871094 C 262.398438 177.738281 260.785156 177.480469 259.105469 177.289062 C 257.359375 177.09375 255.550781 176.769531 253.675781 176.511719 C 251.738281 176.253906 249.738281 176.0625 247.667969 175.800781 C 245.601562 175.609375 243.40625 175.222656 241.210938 175.027344 C 238.949219 174.832031 236.621094 174.574219 234.296875 174.316406 C 233.132812 174.1875 231.90625 174.058594 230.742188 173.929688 C 229.515625 173.863281 228.289062 173.734375 227.0625 173.671875 C 224.605469 173.476562 222.085938 173.21875 219.503906 173.023438 C 214.398438 172.832031 209.101562 172.3125 203.804688 172.183594 C 198.441406 171.863281 193.015625 171.992188 187.652344 171.796875 C 182.226562 171.992188 176.800781 171.863281 171.503906 172.183594 C 166.140625 172.25 160.910156 172.765625 155.804688 173.023438 C 153.222656 173.21875 150.765625 173.476562 148.246094 173.671875 C 147.019531 173.800781 145.792969 173.863281 144.5625 173.929688 C 143.335938 174.058594 142.175781 174.1875 141.011719 174.316406 C 138.683594 174.574219 136.359375 174.832031 134.097656 175.027344 C 131.835938 175.285156 129.707031 175.609375 127.636719 175.867188 C 125.570312 176.125 123.503906 176.320312 121.628906 176.578125 C 119.757812 176.835938 117.949219 177.160156 116.203125 177.351562 C 114.460938 177.546875 112.910156 177.804688 111.359375 177.933594 C 109.871094 178.128906 108.453125 178.386719 107.160156 178.578125 C 104.640625 178.96875 102.636719 179.160156 101.214844 179.289062 C 99.664062 179.160156 98.890625 179.226562 98.890625 179.226562 Z M 98.890625 179.226562 " fill-opacity="1" fill-rule="nonzero"/><g clip-path="url(#4c2f94d8bb)"><path fill="#7c277c" d="M 265.113281 253.960938 C 263.882812 253.832031 262.722656 253.574219 261.558594 253.25 C 259.878906 252.734375 258.328125 252.089844 256.777344 251.183594 L 256.261719 250.859375 C 254.777344 249.957031 253.355469 248.859375 252.0625 247.503906 C 239.660156 235.101562 239.722656 209.328125 244.308594 187.042969 C 243.859375 186.976562 243.339844 186.914062 242.886719 186.847656 C 241.855469 186.71875 240.886719 186.589844 239.917969 186.460938 C 237.460938 186.265625 235.136719 186.007812 232.875 185.75 L 229.582031 185.363281 C 228.351562 185.296875 227.191406 185.167969 226.027344 185.105469 C 224.476562 184.976562 222.992188 184.84375 221.570312 184.714844 C 220.601562 184.652344 219.632812 184.523438 218.664062 184.457031 C 216.59375 184.394531 214.527344 184.199219 212.527344 184.070312 C 209.425781 183.875 206.453125 183.683594 203.480469 183.617188 L 202.964844 183.617188 C 199.992188 183.425781 196.890625 183.425781 193.660156 183.359375 C 191.660156 183.359375 189.59375 183.296875 187.523438 183.230469 C 185.394531 183.296875 183.324219 183.296875 181.324219 183.359375 C 178.09375 183.359375 175.054688 183.425781 172.085938 183.617188 L 171.566406 183.617188 C 168.660156 183.683594 165.6875 183.875 162.589844 184.070312 C 160.585938 184.199219 158.453125 184.328125 156.386719 184.457031 C 155.351562 184.523438 154.382812 184.652344 153.351562 184.714844 C 151.929688 184.84375 150.507812 184.976562 149.023438 185.105469 C 147.859375 185.234375 146.695312 185.296875 145.46875 185.363281 L 142.175781 185.75 C 139.914062 186.007812 137.585938 186.265625 135.132812 186.460938 C 134.164062 186.589844 133.257812 186.71875 132.226562 186.847656 C 131.773438 186.914062 131.257812 186.976562 130.738281 187.042969 C 135.328125 209.328125 135.457031 235.101562 122.988281 247.503906 C 121.695312 248.792969 120.273438 249.890625 118.789062 250.796875 L 118.269531 251.121094 L 118.207031 251.121094 C 116.722656 252.023438 115.042969 252.734375 113.363281 253.1875 C 112.261719 253.507812 111.035156 253.769531 109.871094 253.898438 L 73.179688 265.394531 C 104.253906 305.507812 145.597656 335.546875 187.460938 350.53125 C 229.320312 335.546875 270.730469 305.574219 301.742188 265.394531 Z M 265.113281 253.960938 " fill-opacity="1" fill-rule="nonzero"/></g><g clip-path="url(#71fd092b63)"><path fill="#000000" d="M 187.460938 337.417969 C 147.535156 323.144531 107.933594 298.46875 73.566406 265.910156 C 104.574219 305.832031 145.792969 335.675781 187.460938 350.59375 C 229.128906 335.675781 270.34375 305.832031 301.351562 265.910156 C 267.050781 298.46875 227.449219 323.144531 187.460938 337.417969 Z M 187.460938 337.417969 " fill-opacity="0.2" fill-rule="nonzero"/></g><path fill="#7c277c" d="M 284.558594 40.023438 C 255.355469 29.945312 221.3125 32.207031 187.460938 44.351562 C 153.671875 32.207031 119.5625 29.945312 90.429688 40.023438 C 50.375 53.847656 28.085938 88.019531 25.375 130.652344 L 71.953125 116.117188 C 72.273438 115.988281 72.597656 115.921875 72.921875 115.792969 C 73.050781 115.730469 73.179688 115.730469 73.308594 115.664062 C 75.117188 115.210938 76.992188 114.953125 78.863281 114.953125 C 79.832031 114.953125 80.867188 115.019531 81.898438 115.148438 C 82.417969 115.210938 82.871094 115.277344 83.386719 115.40625 C 84.097656 115.535156 84.808594 115.730469 85.519531 115.921875 C 85.519531 115.921875 95.273438 117.28125 106.578125 131.75 C 108.128906 133.6875 109.613281 135.753906 111.101562 138.015625 L 110.972656 138.078125 C 113.683594 142.277344 116.398438 147.316406 118.980469 153.257812 C 119.886719 152.804688 120.726562 152.417969 121.566406 152.097656 L 122.40625 151.707031 C 122.664062 151.578125 122.921875 151.515625 123.179688 151.386719 C 124.019531 150.996094 125.117188 150.546875 126.28125 150.09375 C 128.738281 149.1875 131.128906 148.285156 133.453125 147.507812 L 133.515625 147.507812 C 134.746094 147.058594 136.035156 146.605469 137.394531 146.152344 L 137.523438 146.089844 L 137.652344 146.023438 C 138.945312 145.636719 140.300781 145.25 141.65625 144.925781 C 143.015625 144.539062 144.371094 144.214844 145.726562 143.828125 L 145.792969 143.828125 C 146.179688 143.699219 146.566406 143.632812 146.953125 143.503906 C 147.921875 143.246094 149.085938 142.921875 150.3125 142.664062 L 151.863281 142.34375 C 157.097656 141.308594 162.523438 140.210938 168.402344 139.695312 C 174.152344 138.917969 179.902344 138.789062 185.394531 138.59375 L 187.460938 138.53125 L 189.722656 138.59375 C 195.148438 138.726562 200.832031 138.917969 206.519531 139.628906 C 212.265625 140.144531 217.628906 141.179688 222.796875 142.214844 L 224.605469 142.535156 C 225.898438 142.792969 227.0625 143.117188 228.03125 143.375 C 228.417969 143.441406 228.742188 143.570312 229.128906 143.632812 L 229.191406 143.632812 C 230.550781 144.023438 231.972656 144.34375 233.328125 144.730469 C 234.621094 145.054688 235.976562 145.441406 237.332031 145.832031 L 237.527344 145.894531 L 237.71875 145.960938 C 239.140625 146.410156 240.5 146.929688 241.660156 147.316406 C 243.988281 148.15625 246.378906 148.996094 248.832031 149.898438 C 249.996094 150.351562 251.027344 150.804688 251.933594 151.191406 C 252.191406 151.320312 252.449219 151.386719 252.644531 151.515625 C 252.644531 151.515625 253.417969 151.835938 253.742188 152.03125 C 254.386719 152.355469 255.097656 152.613281 255.746094 152.9375 C 259.105469 145.3125 262.785156 139.242188 266.339844 134.460938 C 270.472656 128.777344 274.800781 124.253906 279.195312 121.027344 C 280.9375 119.734375 281.972656 119.152344 281.972656 119.152344 C 285.136719 117.214844 288.367188 115.921875 291.597656 115.277344 C 292.050781 115.148438 292.566406 115.082031 293.085938 115.019531 C 294.117188 114.890625 295.085938 114.824219 296.121094 114.824219 C 297.996094 114.824219 299.867188 115.082031 301.675781 115.535156 C 301.804688 115.601562 301.933594 115.601562 302.0625 115.664062 C 302.386719 115.730469 302.710938 115.859375 303.03125 115.988281 L 349.609375 130.519531 C 346.898438 88.019531 324.546875 53.847656 284.558594 40.023438 Z M 284.558594 40.023438 " fill-opacity="1" fill-rule="nonzero"/><g clip-path="url(#8536aed376)"><path fill="#000000" d="M 88.425781 54.300781 C 118.53125 43.898438 153.738281 46.289062 188.621094 58.757812 C 223.507812 46.289062 258.714844 43.898438 288.820312 54.300781 C 318.085938 64.441406 338.175781 85.109375 348.449219 111.917969 C 341.40625 77.617188 320.089844 50.746094 285.71875 38.863281 C 256.519531 28.785156 222.410156 31.109375 188.621094 43.1875 C 154.835938 31.109375 120.726562 28.785156 91.527344 38.863281 C 57.15625 50.746094 35.839844 77.617188 28.796875 111.917969 C 39.070312 85.109375 59.160156 64.441406 88.425781 54.300781 Z M 88.425781 54.300781 " fill-opacity="0.2" fill-rule="nonzero"/></g></svg>