<svg xmlns="http://www.w3.org/2000/svg" xmlns:xlink="http://www.w3.org/1999/xlink" width="100"
    zoomAndPan="magnify" viewBox="0 0 375 374.999991" height="100"
    preserveAspectRatio="xMidYMid meet" version="1.0">
    <defs>
        <clipPath id="f359eac9bf">
            <path
                d="M 26.171875 120 L 348.671875 120 L 348.671875 367.519531 L 26.171875 367.519531 Z M 26.171875 120 "
                clip-rule="nonzero" />
        </clipPath>
        <clipPath id="1e0857b7a9">
            <path
                d="M 26.171875 23 L 348.671875 23 L 348.671875 122 L 26.171875 122 Z M 26.171875 23 "
                clip-rule="nonzero" />
        </clipPath>
        <clipPath id="558d863f63">
            <path d="M 59 7.519531 L 79 7.519531 L 79 56 L 59 56 Z M 59 7.519531 "
                clip-rule="nonzero" />
        </clipPath>
        <clipPath id="cd0adf4067">
            <path d="M 137 7.519531 L 157 7.519531 L 157 56 L 137 56 Z M 137 7.519531 "
                clip-rule="nonzero" />
        </clipPath>
        <clipPath id="393da0298e">
            <path d="M 215 7.519531 L 234 7.519531 L 234 56 L 215 56 Z M 215 7.519531 "
                clip-rule="nonzero" />
        </clipPath>
        <clipPath id="af8ee34acf">
            <path d="M 293 7.519531 L 312 7.519531 L 312 56 L 293 56 Z M 293 7.519531 "
                clip-rule="nonzero" />
        </clipPath>
    </defs>
    <g clip-path="url(#f359eac9bf)">
        <path fill="#f1dde9"
            d="M 26.15625 120.34375 L 26.15625 347.550781 C 26.15625 358.496094 35.035156 367.375 45.980469 367.375 L 329.015625 367.375 C 339.976562 367.375 348.839844 358.496094 348.839844 347.550781 L 348.839844 120.34375 L 26.15625 120.34375 "
            fill-opacity="1" fill-rule="nonzero" />
    </g>
    <path fill="#7c277c"
        d="M 190.210938 349.097656 C 130.21875 349.097656 81.5625 300.457031 81.5625 240.445312 C 81.5625 180.421875 130.21875 131.777344 190.210938 131.777344 C 250.238281 131.777344 298.878906 180.421875 298.878906 240.445312 C 298.878906 300.457031 250.238281 349.097656 190.210938 349.097656 "
        fill-opacity="1" fill-rule="nonzero" />
    <g clip-path="url(#1e0857b7a9)">
        <path fill="#7c277c"
            d="M 302.734375 66.613281 C 292.699219 66.613281 284.550781 58.464844 284.550781 48.433594 C 284.550781 38.382812 292.699219 30.234375 302.734375 30.234375 C 312.785156 30.234375 320.917969 38.382812 320.917969 48.433594 C 320.917969 58.464844 312.785156 66.613281 302.734375 66.613281 Z M 224.851562 66.613281 C 214.800781 66.613281 206.652344 58.464844 206.652344 48.433594 C 206.652344 38.382812 214.800781 30.234375 224.851562 30.234375 C 234.886719 30.234375 243.035156 38.382812 243.035156 48.433594 C 243.035156 58.464844 234.886719 66.613281 224.851562 66.613281 Z M 146.953125 66.613281 C 136.917969 66.613281 128.753906 58.464844 128.753906 48.433594 C 128.753906 38.382812 136.917969 30.234375 146.953125 30.234375 C 157.003906 30.234375 165.136719 38.382812 165.136719 48.433594 C 165.136719 58.464844 157.003906 66.613281 146.953125 66.613281 Z M 69.054688 66.613281 C 59.019531 66.613281 50.875 58.464844 50.875 48.433594 C 50.875 38.382812 59.019531 30.234375 69.054688 30.234375 C 79.105469 30.234375 87.238281 38.382812 87.238281 48.433594 C 87.238281 58.464844 79.105469 66.613281 69.054688 66.613281 Z M 329.015625 23.632812 L 45.980469 23.632812 C 35.035156 23.632812 26.15625 32.511719 26.15625 43.457031 L 26.15625 121.46875 L 348.839844 121.46875 L 348.839844 43.457031 C 348.839844 32.511719 339.976562 23.632812 329.015625 23.632812 "
            fill-opacity="1" fill-rule="nonzero" />
    </g>
    <g clip-path="url(#558d863f63)">
        <path fill="#ff0992"
            d="M 78.164062 48.15625 C 78.164062 52.320312 74.082031 55.703125 69.054688 55.703125 C 64.03125 55.703125 59.964844 52.320312 59.964844 48.15625 L 59.964844 15.304688 C 59.964844 11.140625 64.03125 7.773438 69.054688 7.773438 C 74.082031 7.773438 78.164062 11.140625 78.164062 15.304688 L 78.164062 48.15625 "
            fill-opacity="1" fill-rule="nonzero" />
    </g>
    <g clip-path="url(#cd0adf4067)">
        <path fill="#ff0992"
            d="M 156.042969 48.15625 C 156.042969 52.320312 151.980469 55.703125 146.953125 55.703125 C 141.929688 55.703125 137.847656 52.320312 137.847656 48.15625 L 137.847656 15.304688 C 137.847656 11.140625 141.929688 7.773438 146.953125 7.773438 C 151.980469 7.773438 156.042969 11.140625 156.042969 15.304688 L 156.042969 48.15625 "
            fill-opacity="1" fill-rule="nonzero" />
    </g>
    <g clip-path="url(#393da0298e)">
        <path fill="#ff0992"
            d="M 233.941406 48.15625 C 233.941406 52.320312 229.878906 55.703125 224.835938 55.703125 C 219.828125 55.703125 215.746094 52.320312 215.746094 48.15625 L 215.746094 15.304688 C 215.746094 11.140625 219.828125 7.773438 224.835938 7.773438 C 229.878906 7.773438 233.941406 11.140625 233.941406 15.304688 L 233.941406 48.15625 "
            fill-opacity="1" fill-rule="nonzero" />
    </g>
    <g clip-path="url(#af8ee34acf)">
        <path fill="#ff0992"
            d="M 311.824219 48.15625 C 311.824219 52.320312 307.757812 55.703125 302.734375 55.703125 C 297.710938 55.703125 293.644531 52.320312 293.644531 48.15625 L 293.644531 15.304688 C 293.644531 11.140625 297.710938 7.773438 302.734375 7.773438 C 307.757812 7.773438 311.824219 11.140625 311.824219 15.304688 L 311.824219 48.15625 "
            fill-opacity="1" fill-rule="nonzero" />
    </g>
    <path fill="#ffffff"
        d="M 263.054688 284.695312 C 257.621094 282.078125 119.0625 215.351562 114.332031 213.058594 C 109.597656 210.800781 119.941406 187.152344 125.519531 189.820312 C 131.113281 192.519531 268.519531 258.691406 274.257812 261.457031 C 279.984375 264.207031 268.5 287.316406 263.054688 284.695312 "
        fill-opacity="1" fill-rule="nonzero" />
    <path fill="#ffffff"
        d="M 146.238281 259.117188 C 144.675781 262.335938 140.804688 263.703125 137.570312 262.140625 L 115.386719 251.457031 C 112.152344 249.878906 110.800781 246.023438 112.347656 242.789062 L 147.523438 169.75 C 149.085938 166.53125 152.953125 165.164062 156.191406 166.726562 L 178.390625 177.410156 C 181.609375 178.972656 182.960938 182.84375 181.414062 186.0625 L 146.238281 259.117188 "
        fill-opacity="1" fill-rule="nonzero" />
    <path fill="#ffffff"
        d="M 210.132812 289.867188 C 208.574219 293.089844 209.921875 296.976562 213.160156 298.519531 L 235.359375 309.222656 C 238.59375 310.78125 242.464844 309.414062 244.007812 306.195312 L 279.1875 233.144531 C 280.746094 229.925781 279.398438 226.054688 276.160156 224.492188 L 253.945312 213.808594 C 250.726562 212.246094 246.855469 213.613281 245.292969 216.832031 L 210.132812 289.867188 "
        fill-opacity="1" fill-rule="nonzero" />
</svg>