<svg xmlns="http://www.w3.org/2000/svg" xmlns:xlink="http://www.w3.org/1999/xlink" width="100" zoomAndPan="magnify" viewBox="0 0 375 374.999991" height="100" preserveAspectRatio="xMidYMid meet" version="1.0"><defs><clipPath id="6e26f42162"><path d="M 155 5.066406 L 193 5.066406 L 193 97 L 155 97 Z M 155 5.066406 " clip-rule="nonzero"/></clipPath><clipPath id="f63a854717"><path d="M 18.75 59 L 329 59 L 329 369.566406 L 18.75 369.566406 Z M 18.75 59 " clip-rule="nonzero"/></clipPath><clipPath id="03f536c092"><path d="M 283 41 L 356.25 41 L 356.25 115 L 283 115 Z M 283 41 " clip-rule="nonzero"/></clipPath><clipPath id="8e311c4978"><path d="M 119 5.066406 L 229 5.066406 L 229 42 L 119 42 Z M 119 5.066406 " clip-rule="nonzero"/></clipPath></defs><g clip-path="url(#6e26f42162)"><path fill="#7c277c" d="M 173.816406 96.285156 C 173.21875 96.285156 172.625 96.253906 172.03125 96.195312 C 171.433594 96.136719 170.84375 96.050781 170.257812 95.933594 C 169.671875 95.816406 169.09375 95.671875 168.523438 95.496094 C 167.949219 95.324219 167.386719 95.125 166.835938 94.894531 C 166.285156 94.667969 165.746094 94.410156 165.21875 94.128906 C 164.691406 93.847656 164.179688 93.539062 163.683594 93.207031 C 163.183594 92.875 162.707031 92.519531 162.246094 92.140625 C 161.78125 91.761719 161.339844 91.363281 160.917969 90.941406 C 160.496094 90.519531 160.09375 90.074219 159.714844 89.613281 C 159.335938 89.152344 158.980469 88.671875 158.648438 88.175781 C 158.316406 87.679688 158.011719 87.167969 157.730469 86.640625 C 157.445312 86.113281 157.191406 85.574219 156.964844 85.023438 C 156.734375 84.46875 156.535156 83.90625 156.359375 83.335938 C 156.1875 82.765625 156.042969 82.183594 155.925781 81.597656 C 155.808594 81.011719 155.722656 80.421875 155.664062 79.828125 C 155.605469 79.234375 155.574219 78.636719 155.574219 78.039062 L 155.574219 23.3125 C 155.574219 22.714844 155.605469 22.117188 155.664062 21.523438 C 155.722656 20.929688 155.808594 20.335938 155.925781 19.75 C 156.042969 19.164062 156.1875 18.585938 156.359375 18.015625 C 156.535156 17.441406 156.734375 16.882812 156.964844 16.328125 C 157.191406 15.777344 157.445312 15.238281 157.730469 14.710938 C 158.011719 14.183594 158.316406 13.671875 158.648438 13.175781 C 158.980469 12.679688 159.335938 12.199219 159.714844 11.738281 C 160.09375 11.277344 160.496094 10.832031 160.917969 10.410156 C 161.339844 9.988281 161.78125 9.585938 162.246094 9.207031 C 162.707031 8.828125 163.183594 8.472656 163.683594 8.140625 C 164.179688 7.808594 164.691406 7.503906 165.21875 7.222656 C 165.746094 6.941406 166.285156 6.683594 166.835938 6.457031 C 167.386719 6.226562 167.949219 6.027344 168.523438 5.851562 C 169.09375 5.679688 169.671875 5.535156 170.257812 5.417969 C 170.84375 5.300781 171.433594 5.214844 172.03125 5.15625 C 172.625 5.097656 173.21875 5.066406 173.816406 5.066406 C 174.414062 5.066406 175.011719 5.097656 175.605469 5.15625 C 176.199219 5.214844 176.789062 5.300781 177.375 5.417969 C 177.960938 5.535156 178.542969 5.679688 179.113281 5.851562 C 179.683594 6.027344 180.246094 6.226562 180.800781 6.457031 C 181.351562 6.683594 181.890625 6.941406 182.417969 7.222656 C 182.945312 7.503906 183.457031 7.808594 183.953125 8.140625 C 184.449219 8.472656 184.929688 8.828125 185.390625 9.207031 C 185.851562 9.585938 186.296875 9.988281 186.71875 10.410156 C 187.140625 10.832031 187.539062 11.277344 187.917969 11.738281 C 188.296875 12.199219 188.652344 12.679688 188.984375 13.175781 C 189.316406 13.671875 189.625 14.183594 189.90625 14.710938 C 190.1875 15.238281 190.445312 15.777344 190.671875 16.328125 C 190.902344 16.882812 191.101562 17.441406 191.273438 18.015625 C 191.449219 18.585938 191.59375 19.164062 191.710938 19.75 C 191.828125 20.335938 191.914062 20.929688 191.972656 21.523438 C 192.03125 22.117188 192.0625 22.714844 192.0625 23.3125 L 192.0625 78.039062 C 192.0625 78.636719 192.03125 79.234375 191.972656 79.828125 C 191.914062 80.421875 191.828125 81.011719 191.710938 81.597656 C 191.59375 82.183594 191.449219 82.765625 191.273438 83.335938 C 191.101562 83.90625 190.902344 84.46875 190.671875 85.023438 C 190.445312 85.574219 190.1875 86.113281 189.90625 86.640625 C 189.625 87.167969 189.316406 87.679688 188.984375 88.175781 C 188.652344 88.671875 188.296875 89.152344 187.917969 89.613281 C 187.539062 90.074219 187.140625 90.519531 186.71875 90.941406 C 186.296875 91.363281 185.851562 91.761719 185.390625 92.140625 C 184.929688 92.519531 184.449219 92.875 183.953125 93.207031 C 183.457031 93.539062 182.945312 93.847656 182.417969 94.128906 C 181.890625 94.410156 181.351562 94.667969 180.800781 94.894531 C 180.246094 95.125 179.683594 95.324219 179.113281 95.496094 C 178.542969 95.671875 177.960938 95.816406 177.375 95.933594 C 176.789062 96.050781 176.199219 96.136719 175.605469 96.195312 C 175.011719 96.253906 174.414062 96.285156 173.816406 96.285156 Z M 173.816406 96.285156 " fill-opacity="1" fill-rule="nonzero"/></g><g clip-path="url(#f63a854717)"><path fill="#7c277c" d="M 328.882812 214.863281 C 328.882812 217.402344 328.820312 219.9375 328.699219 222.472656 C 328.574219 225.007812 328.386719 227.539062 328.136719 230.0625 C 327.890625 232.589844 327.578125 235.105469 327.207031 237.617188 C 326.832031 240.128906 326.398438 242.625 325.90625 245.117188 C 325.410156 247.605469 324.855469 250.082031 324.238281 252.542969 C 323.621094 255.003906 322.945312 257.449219 322.207031 259.878906 C 321.46875 262.304688 320.675781 264.714844 319.820312 267.105469 C 318.964844 269.492188 318.050781 271.859375 317.082031 274.207031 C 316.109375 276.550781 315.082031 278.871094 313.996094 281.164062 C 312.910156 283.457031 311.769531 285.722656 310.574219 287.960938 C 309.378906 290.199219 308.128906 292.40625 306.824219 294.585938 C 305.519531 296.761719 304.160156 298.90625 302.75 301.015625 C 301.339844 303.125 299.878906 305.199219 298.367188 307.238281 C 296.855469 309.277344 295.296875 311.277344 293.6875 313.238281 C 292.074219 315.199219 290.417969 317.121094 288.714844 319 C 287.011719 320.878906 285.261719 322.71875 283.464844 324.511719 C 281.671875 326.308594 279.835938 328.054688 277.953125 329.761719 C 276.074219 331.464844 274.152344 333.121094 272.191406 334.730469 C 270.230469 336.34375 268.230469 337.902344 266.191406 339.414062 C 264.152344 340.925781 262.078125 342.386719 259.96875 343.796875 C 257.859375 345.207031 255.714844 346.566406 253.539062 347.871094 C 251.359375 349.175781 249.152344 350.425781 246.914062 351.621094 C 244.675781 352.816406 242.410156 353.957031 240.117188 355.042969 C 237.824219 356.128906 235.503906 357.15625 233.160156 358.128906 C 230.816406 359.097656 228.449219 360.011719 226.058594 360.867188 C 223.667969 361.722656 221.257812 362.515625 218.832031 363.253906 C 216.402344 363.992188 213.957031 364.667969 211.496094 365.285156 C 209.035156 365.898438 206.558594 366.457031 204.070312 366.953125 C 201.582031 367.445312 199.082031 367.878906 196.570312 368.253906 C 194.058594 368.625 191.542969 368.933594 189.015625 369.183594 C 186.492188 369.433594 183.960938 369.621094 181.425781 369.742188 C 178.890625 369.867188 176.355469 369.929688 173.816406 369.929688 C 171.28125 369.929688 168.742188 369.867188 166.207031 369.742188 C 163.675781 369.621094 161.144531 369.433594 158.617188 369.183594 C 156.09375 368.933594 153.574219 368.625 151.066406 368.253906 C 148.554688 367.878906 146.054688 367.445312 143.566406 366.953125 C 141.078125 366.457031 138.601562 365.898438 136.140625 365.285156 C 133.675781 364.667969 131.234375 363.992188 128.804688 363.253906 C 126.375 362.515625 123.964844 361.722656 121.578125 360.867188 C 119.1875 360.011719 116.820312 359.097656 114.476562 358.128906 C 112.132812 357.15625 109.8125 356.128906 107.519531 355.042969 C 105.222656 353.957031 102.957031 352.816406 100.71875 351.621094 C 98.480469 350.425781 96.273438 349.175781 94.097656 347.871094 C 91.921875 346.566406 89.777344 345.207031 87.667969 343.796875 C 85.558594 342.386719 83.484375 340.925781 81.445312 339.414062 C 79.40625 337.902344 77.40625 336.34375 75.445312 334.730469 C 73.484375 333.121094 71.5625 331.464844 69.679688 329.761719 C 67.800781 328.054688 65.964844 326.308594 64.167969 324.511719 C 62.375 322.71875 60.625 320.878906 58.921875 319 C 57.214844 317.121094 55.558594 315.199219 53.949219 313.238281 C 52.339844 311.277344 50.777344 309.277344 49.265625 307.238281 C 47.753906 305.199219 46.292969 303.125 44.882812 301.015625 C 43.472656 298.90625 42.117188 296.761719 40.8125 294.585938 C 39.507812 292.40625 38.257812 290.199219 37.0625 287.960938 C 35.863281 285.722656 34.722656 283.457031 33.640625 281.164062 C 32.554688 278.871094 31.527344 276.550781 30.554688 274.207031 C 29.582031 271.859375 28.671875 269.492188 27.816406 267.105469 C 26.960938 264.714844 26.164062 262.304688 25.429688 259.878906 C 24.691406 257.449219 24.015625 255.003906 23.398438 252.542969 C 22.78125 250.082031 22.226562 247.605469 21.730469 245.117188 C 21.234375 242.625 20.800781 240.128906 20.429688 237.617188 C 20.058594 235.105469 19.746094 232.589844 19.496094 230.0625 C 19.25 227.539062 19.0625 225.007812 18.9375 222.472656 C 18.8125 219.9375 18.75 217.402344 18.75 214.863281 C 18.75 212.324219 18.8125 209.789062 18.9375 207.253906 C 19.0625 204.71875 19.25 202.191406 19.496094 199.664062 C 19.746094 197.140625 20.058594 194.621094 20.429688 192.109375 C 20.800781 189.601562 21.234375 187.101562 21.730469 184.613281 C 22.226562 182.121094 22.78125 179.648438 23.398438 177.1875 C 24.015625 174.722656 24.691406 172.277344 25.429688 169.851562 C 26.164062 167.421875 26.960938 165.011719 27.816406 162.625 C 28.671875 160.234375 29.582031 157.867188 30.554688 155.523438 C 31.527344 153.179688 32.554688 150.859375 33.640625 148.5625 C 34.722656 146.269531 35.863281 144.003906 37.0625 141.765625 C 38.257812 139.527344 39.507812 137.320312 40.8125 135.144531 C 42.117188 132.96875 43.472656 130.824219 44.882812 128.714844 C 46.292969 126.601562 47.753906 124.527344 49.265625 122.492188 C 50.777344 120.453125 52.339844 118.453125 53.949219 116.492188 C 55.558594 114.527344 57.214844 112.609375 58.921875 110.726562 C 60.625 108.847656 62.375 107.007812 64.167969 105.214844 C 65.964844 103.421875 67.800781 101.671875 69.679688 99.96875 C 71.5625 98.261719 73.484375 96.605469 75.445312 94.996094 C 77.40625 93.386719 79.40625 91.824219 81.445312 90.3125 C 83.484375 88.800781 85.558594 87.339844 87.667969 85.929688 C 89.777344 84.519531 91.921875 83.164062 94.097656 81.859375 C 96.273438 80.554688 98.480469 79.304688 100.71875 78.105469 C 102.957031 76.910156 105.222656 75.769531 107.519531 74.683594 C 109.8125 73.601562 112.132812 72.570312 114.476562 71.601562 C 116.820312 70.628906 119.1875 69.714844 121.578125 68.863281 C 123.964844 68.007812 126.375 67.210938 128.804688 66.472656 C 131.234375 65.738281 133.675781 65.0625 136.140625 64.445312 C 138.601562 63.828125 141.078125 63.273438 143.566406 62.777344 C 146.054688 62.28125 148.554688 61.847656 151.066406 61.476562 C 153.574219 61.101562 156.09375 60.792969 158.617188 60.542969 C 161.144531 60.296875 163.675781 60.109375 166.207031 59.984375 C 168.742188 59.859375 171.28125 59.796875 173.816406 59.796875 C 176.355469 59.796875 178.890625 59.859375 181.425781 59.984375 C 183.960938 60.109375 186.492188 60.296875 189.015625 60.542969 C 191.542969 60.792969 194.058594 61.101562 196.570312 61.476562 C 199.082031 61.847656 201.582031 62.28125 204.070312 62.777344 C 206.558594 63.273438 209.035156 63.828125 211.496094 64.445312 C 213.957031 65.0625 216.402344 65.738281 218.832031 66.472656 C 221.257812 67.210938 223.667969 68.007812 226.058594 68.863281 C 228.449219 69.714844 230.816406 70.628906 233.160156 71.601562 C 235.503906 72.570312 237.824219 73.601562 240.117188 74.683594 C 242.410156 75.769531 244.675781 76.910156 246.914062 78.105469 C 249.152344 79.304688 251.359375 80.554688 253.539062 81.859375 C 255.714844 83.164062 257.859375 84.519531 259.96875 85.929688 C 262.078125 87.339844 264.152344 88.800781 266.191406 90.3125 C 268.230469 91.824219 270.230469 93.386719 272.191406 94.996094 C 274.152344 96.605469 276.074219 98.261719 277.953125 99.96875 C 279.835938 101.671875 281.671875 103.421875 283.464844 105.214844 C 285.261719 107.007812 287.011719 108.847656 288.714844 110.726562 C 290.417969 112.609375 292.074219 114.527344 293.6875 116.492188 C 295.296875 118.453125 296.855469 120.453125 298.367188 122.492188 C 299.878906 124.527344 301.339844 126.601562 302.75 128.714844 C 304.160156 130.824219 305.519531 132.96875 306.824219 135.144531 C 308.128906 137.320312 309.378906 139.527344 310.574219 141.765625 C 311.769531 144.003906 312.910156 146.269531 313.996094 148.5625 C 315.082031 150.859375 316.109375 153.179688 317.082031 155.523438 C 318.050781 157.867188 318.964844 160.234375 319.820312 162.625 C 320.675781 165.011719 321.46875 167.421875 322.207031 169.851562 C 322.945312 172.277344 323.621094 174.722656 324.238281 177.1875 C 324.855469 179.648438 325.410156 182.121094 325.90625 184.613281 C 326.398438 187.101562 326.832031 189.601562 327.207031 192.109375 C 327.578125 194.621094 327.890625 197.140625 328.136719 199.664062 C 328.386719 202.191406 328.574219 204.71875 328.699219 207.253906 C 328.820312 209.789062 328.882812 212.324219 328.882812 214.863281 Z M 328.882812 214.863281 " fill-opacity="1" fill-rule="nonzero"/></g><path fill="#f1dde9" d="M 283.277344 214.863281 C 283.277344 216.65625 283.234375 218.445312 283.144531 220.234375 C 283.058594 222.023438 282.925781 223.808594 282.75 225.59375 C 282.574219 227.375 282.355469 229.152344 282.09375 230.925781 C 281.828125 232.695312 281.523438 234.460938 281.171875 236.21875 C 280.824219 237.976562 280.429688 239.722656 279.996094 241.460938 C 279.5625 243.199219 279.082031 244.925781 278.5625 246.636719 C 278.042969 248.351562 277.480469 250.054688 276.878906 251.738281 C 276.273438 253.425781 275.628906 255.097656 274.945312 256.753906 C 274.257812 258.40625 273.535156 260.042969 272.765625 261.664062 C 272 263.28125 271.195312 264.882812 270.351562 266.460938 C 269.507812 268.042969 268.625 269.601562 267.703125 271.136719 C 266.78125 272.671875 265.824219 274.1875 264.828125 275.675781 C 263.835938 277.164062 262.804688 278.628906 261.734375 280.070312 C 260.667969 281.507812 259.566406 282.917969 258.429688 284.304688 C 257.292969 285.6875 256.125 287.042969 254.921875 288.371094 C 253.71875 289.699219 252.484375 290.996094 251.214844 292.261719 C 249.949219 293.53125 248.652344 294.765625 247.324219 295.96875 C 246 297.171875 244.640625 298.339844 243.257812 299.476562 C 241.871094 300.613281 240.460938 301.714844 239.023438 302.78125 C 237.582031 303.847656 236.121094 304.878906 234.628906 305.875 C 233.140625 306.871094 231.628906 307.828125 230.089844 308.75 C 228.554688 309.671875 226.996094 310.554688 225.417969 311.398438 C 223.835938 312.242188 222.238281 313.046875 220.617188 313.8125 C 218.996094 314.578125 217.359375 315.304688 215.707031 315.992188 C 214.050781 316.675781 212.378906 317.320312 210.691406 317.925781 C 209.007812 318.527344 207.304688 319.089844 205.59375 319.609375 C 203.878906 320.128906 202.152344 320.605469 200.414062 321.042969 C 198.675781 321.476562 196.929688 321.871094 195.171875 322.21875 C 193.414062 322.570312 191.652344 322.875 189.878906 323.136719 C 188.105469 323.402344 186.328125 323.621094 184.546875 323.796875 C 182.765625 323.972656 180.976562 324.101562 179.1875 324.191406 C 177.398438 324.277344 175.609375 324.324219 173.816406 324.324219 C 172.027344 324.324219 170.234375 324.277344 168.445312 324.191406 C 166.65625 324.101562 164.871094 323.972656 163.089844 323.796875 C 161.304688 323.621094 159.527344 323.402344 157.757812 323.136719 C 155.984375 322.875 154.21875 322.570312 152.464844 322.21875 C 150.707031 321.871094 148.957031 321.476562 147.222656 321.042969 C 145.484375 320.605469 143.757812 320.128906 142.042969 319.609375 C 140.328125 319.089844 138.628906 318.527344 136.941406 317.925781 C 135.253906 317.320312 133.585938 316.675781 131.929688 315.992188 C 130.273438 315.304688 128.636719 314.578125 127.019531 313.8125 C 125.398438 313.046875 123.800781 312.242188 122.21875 311.398438 C 120.640625 310.554688 119.082031 309.671875 117.542969 308.75 C 116.007812 307.828125 114.496094 306.871094 113.003906 305.875 C 111.515625 304.878906 110.050781 303.847656 108.613281 302.78125 C 107.175781 301.714844 105.761719 300.613281 104.378906 299.476562 C 102.992188 298.339844 101.636719 297.171875 100.308594 295.96875 C 98.980469 294.765625 97.683594 293.53125 96.417969 292.261719 C 95.152344 290.996094 93.917969 289.699219 92.714844 288.371094 C 91.511719 287.042969 90.339844 285.6875 89.203125 284.304688 C 88.066406 282.917969 86.964844 281.507812 85.898438 280.070312 C 84.832031 278.628906 83.800781 277.164062 82.804688 275.675781 C 81.8125 274.1875 80.851562 272.671875 79.929688 271.136719 C 79.011719 269.601562 78.128906 268.042969 77.285156 266.460938 C 76.4375 264.882812 75.632812 263.28125 74.867188 261.664062 C 74.101562 260.042969 73.375 258.40625 72.691406 256.753906 C 72.003906 255.097656 71.359375 253.425781 70.757812 251.738281 C 70.152344 250.054688 69.59375 248.351562 69.070312 246.636719 C 68.550781 244.925781 68.074219 243.199219 67.640625 241.460938 C 67.203125 239.722656 66.8125 237.976562 66.460938 236.21875 C 66.113281 234.460938 65.804688 232.695312 65.542969 230.925781 C 65.28125 229.152344 65.0625 227.375 64.886719 225.59375 C 64.710938 223.808594 64.578125 222.023438 64.492188 220.234375 C 64.402344 218.445312 64.359375 216.65625 64.359375 214.863281 C 64.359375 213.074219 64.402344 211.28125 64.492188 209.492188 C 64.578125 207.703125 64.710938 205.917969 64.886719 204.136719 C 65.0625 202.351562 65.28125 200.574219 65.542969 198.804688 C 65.804688 197.03125 66.113281 195.265625 66.460938 193.507812 C 66.8125 191.753906 67.203125 190.003906 67.640625 188.269531 C 68.074219 186.53125 68.550781 184.804688 69.070312 183.089844 C 69.59375 181.375 70.152344 179.675781 70.757812 177.988281 C 71.359375 176.300781 72.003906 174.628906 72.691406 172.976562 C 73.375 171.320312 74.101562 169.683594 74.867188 168.0625 C 75.632812 166.445312 76.4375 164.84375 77.285156 163.265625 C 78.128906 161.683594 79.011719 160.128906 79.929688 158.589844 C 80.851562 157.054688 81.8125 155.542969 82.804688 154.050781 C 83.800781 152.5625 84.832031 151.097656 85.898438 149.660156 C 86.964844 148.21875 88.066406 146.808594 89.203125 145.425781 C 90.339844 144.039062 91.511719 142.683594 92.714844 141.355469 C 93.917969 140.027344 95.152344 138.730469 96.417969 137.464844 C 97.683594 136.199219 98.980469 134.964844 100.308594 133.761719 C 101.636719 132.558594 102.992188 131.386719 104.378906 130.25 C 105.761719 129.113281 107.175781 128.011719 108.613281 126.945312 C 110.050781 125.878906 111.515625 124.847656 113.003906 123.851562 C 114.496094 122.855469 116.007812 121.898438 117.542969 120.976562 C 119.082031 120.058594 120.640625 119.175781 122.21875 118.328125 C 123.800781 117.484375 125.398438 116.679688 127.019531 115.914062 C 128.636719 115.148438 130.273438 114.421875 131.929688 113.738281 C 133.585938 113.050781 135.253906 112.40625 136.941406 111.804688 C 138.628906 111.199219 140.328125 110.636719 142.042969 110.117188 C 143.757812 109.597656 145.484375 109.121094 147.222656 108.683594 C 148.957031 108.25 150.707031 107.859375 152.464844 107.507812 C 154.21875 107.160156 155.984375 106.851562 157.757812 106.589844 C 159.527344 106.328125 161.304688 106.109375 163.089844 105.933594 C 164.871094 105.757812 166.65625 105.625 168.445312 105.535156 C 170.234375 105.449219 172.027344 105.40625 173.816406 105.40625 C 175.609375 105.40625 177.398438 105.449219 179.1875 105.535156 C 180.976562 105.625 182.765625 105.757812 184.546875 105.933594 C 186.328125 106.109375 188.105469 106.328125 189.878906 106.589844 C 191.652344 106.851562 193.414062 107.160156 195.171875 107.507812 C 196.929688 107.859375 198.675781 108.25 200.414062 108.683594 C 202.152344 109.121094 203.878906 109.597656 205.59375 110.117188 C 207.304688 110.636719 209.007812 111.199219 210.691406 111.804688 C 212.378906 112.40625 214.050781 113.050781 215.707031 113.738281 C 217.359375 114.421875 218.996094 115.148438 220.617188 115.914062 C 222.238281 116.679688 223.835938 117.484375 225.417969 118.328125 C 226.996094 119.175781 228.554688 120.058594 230.089844 120.976562 C 231.628906 121.898438 233.140625 122.855469 234.628906 123.851562 C 236.121094 124.847656 237.582031 125.878906 239.023438 126.945312 C 240.460938 128.011719 241.871094 129.113281 243.257812 130.25 C 244.640625 131.386719 246 132.558594 247.324219 133.761719 C 248.652344 134.964844 249.949219 136.199219 251.214844 137.464844 C 252.484375 138.730469 253.71875 140.027344 254.921875 141.355469 C 256.125 142.683594 257.292969 144.039062 258.429688 145.425781 C 259.566406 146.808594 260.667969 148.21875 261.734375 149.660156 C 262.804688 151.097656 263.835938 152.5625 264.828125 154.050781 C 265.824219 155.542969 266.78125 157.054688 267.703125 158.589844 C 268.625 160.128906 269.507812 161.683594 270.351562 163.265625 C 271.195312 164.84375 272 166.445312 272.765625 168.0625 C 273.535156 169.683594 274.257812 171.320312 274.945312 172.976562 C 275.628906 174.628906 276.273438 176.300781 276.878906 177.988281 C 277.480469 179.675781 278.042969 181.375 278.5625 183.089844 C 279.082031 184.804688 279.5625 186.53125 279.996094 188.265625 C 280.429688 190.003906 280.824219 191.753906 281.171875 193.507812 C 281.523438 195.265625 281.828125 197.03125 282.09375 198.804688 C 282.355469 200.574219 282.574219 202.351562 282.75 204.136719 C 282.925781 205.917969 283.058594 207.703125 283.144531 209.492188 C 283.234375 211.28125 283.277344 213.074219 283.277344 214.863281 Z M 283.277344 214.863281 " fill-opacity="1" fill-rule="nonzero"/><g clip-path="url(#03f536c092)"><path fill="#7c277c" d="M 338.007812 114.527344 C 335.582031 114.539062 333.246094 114.089844 331.003906 113.171875 C 328.757812 112.253906 326.773438 110.945312 325.054688 109.234375 L 288.566406 72.75 C 288.144531 72.324219 287.742188 71.882812 287.359375 71.417969 C 286.980469 70.953125 286.625 70.472656 286.292969 69.972656 C 285.957031 69.476562 285.648438 68.960938 285.367188 68.433594 C 285.085938 67.902344 284.828125 67.359375 284.601562 66.808594 C 284.371094 66.253906 284.167969 65.6875 283.996094 65.113281 C 283.820312 64.539062 283.675781 63.960938 283.558594 63.371094 C 283.441406 62.785156 283.355469 62.191406 283.296875 61.59375 C 283.238281 60.996094 283.207031 60.398438 283.207031 59.800781 C 283.207031 59.199219 283.238281 58.601562 283.296875 58.003906 C 283.355469 57.40625 283.445312 56.816406 283.5625 56.226562 C 283.679688 55.636719 283.824219 55.058594 283.996094 54.484375 C 284.171875 53.910156 284.375 53.34375 284.605469 52.792969 C 284.832031 52.238281 285.089844 51.695312 285.371094 51.167969 C 285.65625 50.636719 285.960938 50.125 286.296875 49.625 C 286.628906 49.128906 286.984375 48.644531 287.367188 48.183594 C 287.746094 47.71875 288.148438 47.273438 288.574219 46.851562 C 288.996094 46.425781 289.441406 46.023438 289.90625 45.644531 C 290.367188 45.261719 290.851562 44.90625 291.347656 44.574219 C 291.847656 44.238281 292.359375 43.933594 292.890625 43.648438 C 293.417969 43.367188 293.960938 43.109375 294.515625 42.878906 C 295.066406 42.652344 295.632812 42.449219 296.207031 42.273438 C 296.78125 42.101562 297.359375 41.957031 297.949219 41.839844 C 298.539062 41.722656 299.128906 41.632812 299.726562 41.574219 C 300.324219 41.515625 300.921875 41.484375 301.523438 41.484375 C 302.121094 41.484375 302.71875 41.515625 303.316406 41.574219 C 303.914062 41.632812 304.507812 41.71875 305.09375 41.835938 C 305.683594 41.953125 306.261719 42.097656 306.835938 42.273438 C 307.410156 42.445312 307.976562 42.648438 308.53125 42.878906 C 309.085938 43.105469 309.625 43.363281 310.15625 43.644531 C 310.683594 43.925781 311.199219 44.234375 311.695312 44.566406 C 312.195312 44.902344 312.675781 45.257812 313.140625 45.636719 C 313.605469 46.019531 314.046875 46.421875 314.472656 46.84375 L 350.957031 83.332031 C 351.386719 83.753906 351.789062 84.195312 352.171875 84.660156 C 352.554688 85.121094 352.914062 85.601562 353.25 86.101562 C 353.585938 86.601562 353.894531 87.113281 354.179688 87.640625 C 354.464844 88.171875 354.722656 88.714844 354.953125 89.265625 C 355.183594 89.820312 355.386719 90.386719 355.5625 90.960938 C 355.738281 91.535156 355.882812 92.117188 356 92.707031 C 356.117188 93.292969 356.207031 93.886719 356.265625 94.484375 C 356.324219 95.082031 356.355469 95.683594 356.355469 96.285156 C 356.355469 96.882812 356.324219 97.484375 356.265625 98.082031 C 356.207031 98.679688 356.117188 99.273438 356 99.859375 C 355.882812 100.449219 355.738281 101.03125 355.5625 101.605469 C 355.386719 102.179688 355.183594 102.746094 354.953125 103.300781 C 354.722656 103.855469 354.464844 104.394531 354.179688 104.925781 C 353.894531 105.453125 353.585938 105.96875 353.25 106.464844 C 352.914062 106.964844 352.554688 107.445312 352.171875 107.90625 C 351.789062 108.371094 351.386719 108.8125 350.957031 109.234375 C 349.238281 110.945312 347.253906 112.253906 345.011719 113.171875 C 342.765625 114.089844 340.429688 114.539062 338.007812 114.527344 Z M 338.007812 114.527344 " fill-opacity="1" fill-rule="nonzero"/></g><path fill="#ff0992" d="M 173.816406 233.105469 C 172.449219 233.101562 171.09375 232.941406 169.761719 232.632812 C 168.425781 232.320312 167.144531 231.863281 165.910156 231.265625 C 164.679688 230.664062 163.53125 229.933594 162.464844 229.074219 C 161.394531 228.214844 160.4375 227.25 159.589844 226.175781 L 123.101562 180.566406 C 122.667969 180.109375 122.261719 179.628906 121.878906 179.128906 C 121.496094 178.628906 121.140625 178.109375 120.8125 177.574219 C 120.484375 177.035156 120.183594 176.484375 119.910156 175.914062 C 119.636719 175.347656 119.398438 174.765625 119.183594 174.171875 C 118.972656 173.578125 118.792969 172.976562 118.644531 172.367188 C 118.496094 171.753906 118.378906 171.136719 118.292969 170.511719 C 118.207031 169.886719 118.15625 169.261719 118.132812 168.632812 C 118.113281 168 118.125 167.371094 118.171875 166.746094 C 118.214844 166.117188 118.292969 165.492188 118.402344 164.871094 C 118.511719 164.25 118.652344 163.636719 118.828125 163.03125 C 119 162.425781 119.203125 161.832031 119.4375 161.246094 C 119.671875 160.664062 119.9375 160.09375 120.230469 159.535156 C 120.523438 158.976562 120.847656 158.4375 121.195312 157.914062 C 121.546875 157.390625 121.921875 156.886719 122.324219 156.402344 C 122.726562 155.914062 123.152344 155.453125 123.601562 155.011719 C 124.050781 154.570312 124.523438 154.15625 125.015625 153.761719 C 125.507812 153.371094 126.019531 153.003906 126.550781 152.667969 C 127.082031 152.328125 127.628906 152.015625 128.191406 151.734375 C 128.757812 151.453125 129.332031 151.199219 129.921875 150.976562 C 130.511719 150.753906 131.109375 150.5625 131.71875 150.402344 C 132.328125 150.242188 132.945312 150.113281 133.566406 150.015625 C 134.1875 149.921875 134.816406 149.855469 135.445312 149.824219 C 136.074219 149.792969 136.703125 149.792969 137.332031 149.828125 C 137.960938 149.859375 138.585938 149.925781 139.207031 150.023438 C 139.828125 150.121094 140.445312 150.25 141.054688 150.414062 C 141.664062 150.574219 142.261719 150.769531 142.851562 150.992188 C 143.4375 151.214844 144.015625 151.46875 144.578125 151.753906 C 145.140625 152.035156 145.6875 152.347656 146.214844 152.6875 C 146.746094 153.027344 147.257812 153.394531 147.75 153.785156 C 148.242188 154.179688 148.710938 154.597656 149.160156 155.039062 C 149.609375 155.480469 150.035156 155.945312 150.4375 156.429688 C 150.835938 156.914062 151.210938 157.421875 151.5625 157.945312 L 188.046875 203.554688 C 188.417969 204.015625 188.765625 204.5 189.089844 204.996094 C 189.414062 205.496094 189.710938 206.007812 189.988281 206.535156 C 190.261719 207.0625 190.507812 207.601562 190.730469 208.152344 C 190.949219 208.703125 191.144531 209.265625 191.308594 209.835938 C 191.476562 210.40625 191.613281 210.984375 191.726562 211.566406 C 191.835938 212.152344 191.914062 212.738281 191.96875 213.332031 C 192.019531 213.921875 192.042969 214.515625 192.039062 215.109375 C 192.035156 215.703125 192 216.296875 191.9375 216.886719 C 191.871094 217.476562 191.78125 218.0625 191.660156 218.644531 C 191.539062 219.226562 191.390625 219.800781 191.214844 220.367188 C 191.039062 220.9375 190.832031 221.492188 190.601562 222.039062 C 190.371094 222.589844 190.113281 223.125 189.832031 223.644531 C 189.546875 224.167969 189.238281 224.675781 188.90625 225.167969 C 188.574219 225.660156 188.21875 226.132812 187.835938 226.589844 C 187.457031 227.046875 187.058594 227.484375 186.636719 227.902344 C 186.214844 228.320312 185.773438 228.71875 185.3125 229.09375 C 183.679688 230.402344 181.882812 231.398438 179.910156 232.085938 C 177.9375 232.777344 175.90625 233.117188 173.816406 233.105469 Z M 173.816406 233.105469 " fill-opacity="1" fill-rule="nonzero"/><path fill="#ff0992" d="M 201.183594 214.863281 C 201.183594 215.761719 201.136719 216.652344 201.050781 217.546875 C 200.960938 218.4375 200.832031 219.324219 200.65625 220.203125 C 200.480469 221.082031 200.265625 221.949219 200.003906 222.808594 C 199.742188 223.664062 199.441406 224.507812 199.097656 225.335938 C 198.757812 226.164062 198.375 226.972656 197.949219 227.761719 C 197.527344 228.554688 197.070312 229.320312 196.570312 230.066406 C 196.074219 230.8125 195.539062 231.53125 194.972656 232.222656 C 194.402344 232.917969 193.800781 233.578125 193.167969 234.214844 C 192.535156 234.847656 191.871094 235.449219 191.175781 236.015625 C 190.484375 236.585938 189.765625 237.117188 189.019531 237.617188 C 188.277344 238.113281 187.507812 238.574219 186.71875 238.996094 C 185.925781 239.421875 185.117188 239.800781 184.289062 240.144531 C 183.460938 240.488281 182.617188 240.789062 181.761719 241.050781 C 180.902344 241.308594 180.035156 241.527344 179.15625 241.703125 C 178.277344 241.878906 177.390625 242.007812 176.5 242.097656 C 175.609375 242.183594 174.714844 242.230469 173.816406 242.230469 C 172.921875 242.230469 172.027344 242.183594 171.136719 242.097656 C 170.242188 242.007812 169.359375 241.878906 168.480469 241.703125 C 167.601562 241.527344 166.730469 241.308594 165.875 241.050781 C 165.015625 240.789062 164.171875 240.488281 163.34375 240.144531 C 162.519531 239.800781 161.707031 239.421875 160.917969 238.996094 C 160.128906 238.574219 159.359375 238.113281 158.613281 237.617188 C 157.871094 237.117188 157.152344 236.585938 156.457031 236.015625 C 155.765625 235.449219 155.101562 234.847656 154.46875 234.214844 C 153.835938 233.578125 153.234375 232.917969 152.664062 232.222656 C 152.097656 231.53125 151.5625 230.8125 151.066406 230.066406 C 150.566406 229.320312 150.105469 228.554688 149.683594 227.761719 C 149.261719 226.972656 148.878906 226.164062 148.535156 225.335938 C 148.191406 224.507812 147.890625 223.664062 147.632812 222.808594 C 147.371094 221.949219 147.152344 221.082031 146.980469 220.203125 C 146.804688 219.324219 146.671875 218.4375 146.585938 217.546875 C 146.496094 216.652344 146.453125 215.761719 146.453125 214.863281 C 146.453125 213.96875 146.496094 213.074219 146.585938 212.183594 C 146.671875 211.289062 146.804688 210.40625 146.980469 209.523438 C 147.152344 208.644531 147.371094 207.777344 147.632812 206.921875 C 147.890625 206.0625 148.191406 205.21875 148.535156 204.390625 C 148.878906 203.5625 149.261719 202.753906 149.683594 201.964844 C 150.105469 201.175781 150.566406 200.40625 151.066406 199.660156 C 151.5625 198.914062 152.097656 198.195312 152.664062 197.503906 C 153.234375 196.8125 153.835938 196.148438 154.46875 195.515625 C 155.101562 194.878906 155.765625 194.277344 156.457031 193.710938 C 157.152344 193.140625 157.871094 192.609375 158.613281 192.109375 C 159.359375 191.613281 160.128906 191.152344 160.917969 190.730469 C 161.707031 190.308594 162.519531 189.925781 163.34375 189.582031 C 164.171875 189.238281 165.015625 188.9375 165.875 188.675781 C 166.730469 188.417969 167.601562 188.199219 168.480469 188.023438 C 169.359375 187.851562 170.242188 187.71875 171.136719 187.632812 C 172.027344 187.542969 172.921875 187.5 173.816406 187.5 C 174.714844 187.5 175.609375 187.542969 176.5 187.632812 C 177.390625 187.71875 178.277344 187.851562 179.15625 188.023438 C 180.035156 188.199219 180.902344 188.417969 181.761719 188.675781 C 182.617188 188.9375 183.460938 189.238281 184.289062 189.582031 C 185.117188 189.925781 185.925781 190.308594 186.71875 190.730469 C 187.507812 191.152344 188.277344 191.613281 189.019531 192.109375 C 189.765625 192.609375 190.484375 193.140625 191.175781 193.710938 C 191.871094 194.277344 192.535156 194.878906 193.167969 195.515625 C 193.800781 196.148438 194.402344 196.8125 194.972656 197.503906 C 195.539062 198.195312 196.074219 198.914062 196.570312 199.660156 C 197.070312 200.40625 197.527344 201.175781 197.949219 201.964844 C 198.375 202.753906 198.757812 203.5625 199.097656 204.390625 C 199.441406 205.21875 199.742188 206.0625 200.003906 206.921875 C 200.265625 207.777344 200.480469 208.644531 200.65625 209.523438 C 200.832031 210.40625 200.960938 211.289062 201.050781 212.183594 C 201.136719 213.074219 201.183594 213.96875 201.183594 214.863281 Z M 201.183594 214.863281 " fill-opacity="1" fill-rule="nonzero"/><g clip-path="url(#8e311c4978)"><path fill="#7c277c" d="M 210.304688 41.554688 L 137.332031 41.554688 C 136.734375 41.554688 136.136719 41.523438 135.542969 41.464844 C 134.949219 41.40625 134.359375 41.320312 133.773438 41.203125 C 133.1875 41.085938 132.605469 40.941406 132.035156 40.769531 C 131.464844 40.59375 130.902344 40.394531 130.351562 40.164062 C 129.796875 39.9375 129.257812 39.679688 128.730469 39.398438 C 128.203125 39.117188 127.691406 38.8125 127.195312 38.480469 C 126.699219 38.148438 126.21875 37.792969 125.757812 37.414062 C 125.296875 37.035156 124.855469 36.632812 124.429688 36.210938 C 124.007812 35.789062 123.609375 35.347656 123.230469 34.882812 C 122.851562 34.421875 122.496094 33.941406 122.164062 33.445312 C 121.832031 32.949219 121.523438 32.4375 121.242188 31.910156 C 120.960938 31.382812 120.707031 30.84375 120.476562 30.292969 C 120.25 29.738281 120.046875 29.179688 119.875 28.605469 C 119.699219 28.035156 119.554688 27.457031 119.4375 26.871094 C 119.320312 26.285156 119.234375 25.695312 119.175781 25.097656 C 119.117188 24.503906 119.089844 23.910156 119.089844 23.3125 C 119.089844 22.714844 119.117188 22.117188 119.175781 21.523438 C 119.234375 20.929688 119.320312 20.335938 119.4375 19.75 C 119.554688 19.164062 119.699219 18.585938 119.875 18.015625 C 120.046875 17.441406 120.25 16.882812 120.476562 16.328125 C 120.707031 15.777344 120.960938 15.238281 121.242188 14.710938 C 121.523438 14.183594 121.832031 13.671875 122.164062 13.175781 C 122.496094 12.679688 122.851562 12.199219 123.230469 11.738281 C 123.609375 11.277344 124.007812 10.832031 124.429688 10.410156 C 124.855469 9.988281 125.296875 9.585938 125.757812 9.207031 C 126.21875 8.828125 126.699219 8.472656 127.195312 8.140625 C 127.691406 7.808594 128.203125 7.503906 128.730469 7.222656 C 129.257812 6.941406 129.796875 6.683594 130.351562 6.457031 C 130.902344 6.226562 131.464844 6.027344 132.035156 5.851562 C 132.605469 5.679688 133.1875 5.535156 133.773438 5.417969 C 134.359375 5.300781 134.949219 5.214844 135.542969 5.15625 C 136.136719 5.097656 136.734375 5.066406 137.332031 5.066406 L 210.304688 5.066406 C 210.902344 5.066406 211.496094 5.097656 212.09375 5.15625 C 212.6875 5.214844 213.277344 5.300781 213.863281 5.417969 C 214.449219 5.535156 215.027344 5.679688 215.601562 5.851562 C 216.171875 6.027344 216.734375 6.226562 217.285156 6.457031 C 217.835938 6.683594 218.375 6.941406 218.902344 7.222656 C 219.429688 7.503906 219.941406 7.808594 220.4375 8.140625 C 220.9375 8.472656 221.414062 8.828125 221.878906 9.207031 C 222.339844 9.585938 222.78125 9.988281 223.203125 10.410156 C 223.625 10.832031 224.027344 11.277344 224.40625 11.738281 C 224.785156 12.199219 225.140625 12.679688 225.472656 13.175781 C 225.804688 13.671875 226.109375 14.183594 226.394531 14.710938 C 226.675781 15.238281 226.929688 15.777344 227.160156 16.328125 C 227.386719 16.882812 227.589844 17.441406 227.761719 18.015625 C 227.933594 18.585938 228.078125 19.164062 228.195312 19.75 C 228.3125 20.335938 228.402344 20.929688 228.460938 21.523438 C 228.519531 22.117188 228.546875 22.714844 228.546875 23.3125 C 228.546875 23.910156 228.519531 24.503906 228.460938 25.097656 C 228.402344 25.695312 228.3125 26.285156 228.195312 26.871094 C 228.078125 27.457031 227.933594 28.035156 227.761719 28.605469 C 227.589844 29.179688 227.386719 29.738281 227.160156 30.292969 C 226.929688 30.84375 226.675781 31.382812 226.394531 31.910156 C 226.109375 32.4375 225.804688 32.949219 225.472656 33.445312 C 225.140625 33.941406 224.785156 34.421875 224.40625 34.882812 C 224.027344 35.347656 223.625 35.789062 223.203125 36.210938 C 222.78125 36.632812 222.339844 37.035156 221.878906 37.414062 C 221.414062 37.792969 220.9375 38.148438 220.4375 38.480469 C 219.941406 38.8125 219.429688 39.117188 218.902344 39.398438 C 218.375 39.679688 217.835938 39.9375 217.285156 40.164062 C 216.734375 40.394531 216.171875 40.59375 215.601562 40.769531 C 215.027344 40.941406 214.449219 41.085938 213.863281 41.203125 C 213.277344 41.320312 212.6875 41.40625 212.09375 41.464844 C 211.496094 41.523438 210.902344 41.554688 210.304688 41.554688 Z M 210.304688 41.554688 " fill-opacity="1" fill-rule="nonzero"/></g></svg>